<svg height="155.39" viewBox="0 0 757.679 155.39" width="757.679" xmlns="http://www.w3.org/2000/svg"><g fill="#72577d"><text font-family="GlacialIndifference-Bold, Glacial Indifference" font-size="56" font-weight="700" transform="translate(213.679 63)"><tspan x="0" y="0">Equipo PsiMammoliti</tspan></text><text font-family="GlacialIndifference-Regular, Glacial Indifference" font-size="60" letter-spacing=".083em" transform="translate(212.679 135)"><tspan x="0" y="0">Psicología Clínica</tspan></text><path d="m175.034 44.819a2.394 2.394 0 0 0 -2.393-2.393h-3.077a84.475 84.475 0 0 0 -23.006 3.193 84.3 84.3 0 0 0 -4.864-22.7l-1.052-2.892a2.4 2.4 0 0 0 -3.069-1.43l-2.891 1.053a83.909 83.909 0 0 0 -26.082 15.227 84.431 84.431 0 0 0 -17.214-24.834l-2.176-2.176a2.461 2.461 0 0 0 -3.386 0l-2.174 2.176a84.436 84.436 0 0 0 -17.22 24.834 83.909 83.909 0 0 0 -26.079-15.23l-2.891-1.053a2.394 2.394 0 0 0 -3.069 1.43l-1.051 2.892a84.3 84.3 0 0 0 -4.867 22.7 84.469 84.469 0 0 0 -23-3.19h-3.08a2.394 2.394 0 0 0 -2.393 2.393v3.081a84.13 84.13 0 0 0 23.657 58.527 66.622 66.622 0 0 0 -21.237 14.327l-1.72 1.725a2.39 2.39 0 0 0 0 3.383l1.719 1.715a66.934 66.934 0 0 0 68.158 16.483 84.545 84.545 0 0 0 13.07 16.92 5.47 5.47 0 0 0 7.736 0 84.405 84.405 0 0 0 13.07-16.92 66.936 66.936 0 0 0 68.16-16.483l1.719-1.72a2.39 2.39 0 0 0 0-3.383l-1.719-1.72a66.622 66.622 0 0 0 -21.237-14.338 84.13 84.13 0 0 0 23.658-58.516zm-38.714-20.679.643-.234.234.643a79.477 79.477 0 0 1 4.649 22.551 84.179 84.179 0 0 0 -26.1 14.743 83.947 83.947 0 0 0 -5.2-22.3 79.145 79.145 0 0 1 25.774-15.4zm-49.285-10.713.483-.481.482.484a79.508 79.508 0 0 1 17.43 26.157 2.34 2.34 0 0 0 .086.223 79.553 79.553 0 0 1 5.809 29.947 79.135 79.135 0 0 1 -23.325 56.319l-.483.483-.484-.483a79.787 79.787 0 0 1 -17.521-86.266 2.338 2.338 0 0 0 .086-.223 79.49 79.49 0 0 1 17.437-26.16zm-49.2 11.122.234-.643.643.234a79.144 79.144 0 0 1 25.77 15.4 83.947 83.947 0 0 0 -5.2 22.3 84.179 84.179 0 0 0 -26.099-14.74 79.478 79.478 0 0 1 4.655-22.551zm-33.049 22.663h.684a79.358 79.358 0 0 1 53.493 20.683c-.014.619-.047 1.231-.047 1.857a83.835 83.835 0 0 0 22.849 57.731 79.735 79.735 0 0 1 -76.979-79.583zm1.014 76.988-.027-.027.027-.027a61.856 61.856 0 0 1 21.589-14.057 84.1 84.1 0 0 0 56.655 22.238 62.57 62.57 0 0 1 -12.864 6.457 2.3 2.3 0 0 0 -.706.247.369.369 0 0 0 -.053.037 62.219 62.219 0 0 1 -64.621-14.875zm82.2 33.4a.595.595 0 0 1 -.967 0 79.664 79.664 0 0 1 -11.886-15.2 67.667 67.667 0 0 0 12.37-6.625 67.583 67.583 0 0 0 12.37 6.625 79.628 79.628 0 0 1 -11.887 15.2zm81.257-33.43-.027.027a62.219 62.219 0 0 1 -64.619 14.874c-.019-.011-.034-.026-.053-.036a2.371 2.371 0 0 0 -.7-.248 62.592 62.592 0 0 1 -12.869-6.458 84.1 84.1 0 0 0 56.655-22.239 61.856 61.856 0 0 1 21.589 14.051zm.991-76.27a79.735 79.735 0 0 1 -76.981 79.586 83.825 83.825 0 0 0 22.85-57.731c0-.622-.033-1.238-.046-1.857a79.358 79.358 0 0 1 53.494-20.681h.684z" transform="translate(0 -7.193)"/></g></svg>