<svg xmlns="http://www.w3.org/2000/svg" xmlns:xlink="http://www.w3.org/1999/xlink" width="350" height="350" viewBox="0 0 350 350"><defs><linearGradient id="a" x1="0.5" y1="1" x2="0.5" gradientUnits="objectBoundingBox"><stop offset="0" stop-color="gray" stop-opacity="0.251"/><stop offset="0.54" stop-color="gray" stop-opacity="0.122"/><stop offset="1" stop-color="gray" stop-opacity="0.102"/></linearGradient><linearGradient id="b" y2="0" xlink:href="#a"/></defs><g transform="translate(-3827 -5062)"><path d="M0,0H350V350H0Z" transform="translate(3827 5062)" fill="rgba(255,0,0,0)" opacity="0"/><g transform="translate(3826.993 5102.996)"><path d="M117.35,90.725c-2.244.931-4.547,2.126-5.78,4.221-1.306,2.213-1.15,4.96-.907,7.521,2.119,22.2,7.7,45.818-1.938,65.931-4.679,9.758-12.505,17.577-18.73,26.438s-10.925,19.925-8.035,30.35c3.529,12.738,16.7,19.8,25.58,29.6,5.812,6.409,9.886,14.2,15.309,20.94s12.853,12.682,21.509,13.078c12.45.573,22.579-10.178,34.786-12.669,12.505-2.55,25.1,3.939,35.237,11.706s19.362,17.177,31.177,22.027c13.047,5.36,27.755,4.54,41.49,7.76,12.505,2.935,24.017,9.178,36.432,12.505s26.966,3.126,36.585-5.374c12.537-11.116,11.55-30.916,19.557-45.62,7.437-13.662,22-21.818,31.795-33.9,17.633-21.739,17.056-54.965,2.084-78.607s-42.091-37.957-69.822-41.685c-12.505-1.678-25.382-1.449-37.4-5.266-32.181-10.213-51.331-46.8-84.185-54.419-20.884-4.832-41.195,3.536-58.984,13.836C147.665,88.047,133.42,84.059,117.35,90.725Z" transform="translate(-81.08 -63.86)" fill="#72577d" opacity="0.1"/><path d="M191.59,347.69s-11.856,11.189-24.58,11.522a24.694,24.694,0,0,0-14.718,5.235,41.534,41.534,0,0,0-5.5,5.235" transform="translate(-123.96 -249.093)" fill="none" stroke="#535461" stroke-miterlimit="10" stroke-width="2"/><path d="M119.736,410.889c1.709-.868,8.233-.292,8.233-.292s-3.383,5.61-5.092,6.478a3.474,3.474,0,1,1-3.126-6.187Z" transform="translate(-104.929 -290.026)" fill="#72577d"/><path d="M136.544,383.228c1.907.2,7.069,4.231,7.069,4.231s-5.905,2.869-7.8,2.671a3.474,3.474,0,0,1,.726-6.9Z" transform="translate(-114.871 -272.282)" fill="#72577d"/><path d="M180.194,359.134c1.542,1.136,3.967,7.222,3.967,7.222s-6.534-.5-8.076-1.629a3.474,3.474,0,0,1,4.109-5.593Z" transform="translate(-142.236 -256.181)" fill="#72577d"/><path d="M219.981,349.969c1.713.858,5.131,6.447,5.131,6.447s-6.524.615-8.236-.243a3.474,3.474,0,1,1,3.105-6.2Z" transform="translate(-168.339 -250.284)" fill="#72577d"/><path d="M161.415,398.287c.57-1.831-1.1-8.167-1.1-8.167s-4.96,4.28-5.53,6.11a3.474,3.474,0,1,0,6.628,2.056Z" transform="translate(-129.043 -276.784)" fill="#72577d"/><path d="M207.151,387.982c0-1.917-3.491-7.462-3.491-7.462s-3.453,5.558-3.449,7.482a3.474,3.474,0,1,0,6.947-.021Z" transform="translate(-158.823 -270.519)" fill="#72577d"/><path d="M250.376,369.714c.32-1.89-2.182-7.944-2.182-7.944s-4.346,4.9-4.662,6.795a3.474,3.474,0,0,0,6.843,1.153Z" transform="translate(-187.08 -258.282)" fill="#72577d"/><path d="M254.886,195s-14.28-7.844-18.525-19.859a24.7,24.7,0,0,0-9.508-12.4,41.535,41.535,0,0,0-6.683-3.613" transform="translate(-171.849 -126.033)" fill="none" stroke="#535461" stroke-miterlimit="10" stroke-width="2"/><path d="M201.446,135.676c1.351,1.358,2.807,7.746,2.807,7.746s-6.378-1.494-7.729-2.855a3.474,3.474,0,0,1,4.922-4.891Z" transform="translate(-155.835 -110.134)" fill="#72577d"/><path d="M232.66,141.932c.4,1.876-1.852,8.028-1.852,8.028s-4.54-4.721-4.936-6.6a3.474,3.474,0,1,1,6.791-1.431Z" transform="translate(-175.498 -112.906)" fill="#72577d"/><path d="M269.288,176.406c-.6,1.817-5.652,6-5.652,6s-1.535-6.367-.931-8.188a3.477,3.477,0,1,1,6.6,2.192Z" transform="translate(-199.517 -134.323)" fill="#72577d"/><path d="M290.069,211.726c-.288,1.893-4.557,6.864-4.557,6.864s-2.591-6.016-2.3-7.91a3.474,3.474,0,1,1,6.861,1.042Z" transform="translate(-212.975 -157.641)" fill="#72577d"/><path d="M219.558,173.03c1.917-.021,7.434-3.557,7.434-3.557s-5.6-3.4-7.514-3.383a3.474,3.474,0,0,0,.08,6.947Z" transform="translate(-169.157 -130.575)" fill="#72577d"/><path d="M242.538,213.565c1.82-.594,6.027-5.617,6.027-5.617s-6.36-1.574-8.181-.98a3.474,3.474,0,1,0,2.154,6.6Z" transform="translate(-183.397 -157.166)" fill="#72577d"/><path d="M273.377,248.935c1.9-.278,6.892-4.516,6.892-4.516s-6-2.626-7.9-2.348a3.474,3.474,0,1,0,1.007,6.868Z" transform="translate(-203.884 -180.149)" fill="#72577d"/><circle cx="125.748" cy="125.748" r="125.748" transform="translate(55.563 7.788)" fill="url(#a)"/><path d="M123.664,0A123.664,123.664,0,1,1,0,123.664,123.664,123.664,0,0,1,123.664,0Z" transform="translate(57.647 9.872)" fill="#72577d"/><circle cx="98.306" cy="98.306" r="98.306" transform="translate(83.006 35.23)" fill="#dde1ec"/><rect width="5.558" height="86.843" transform="translate(178.533 52.598)" fill="#535461" opacity="0.3"/><g transform="translate(128.567 105.459)" opacity="0.1"><rect width="78.506" height="6.947" transform="translate(58.65 25.993)"/><rect width="6.947" height="55.76" transform="translate(0 6.155) rotate(-62.36)"/><circle cx="10.421" cy="10.421" r="10.421" transform="translate(42.323 19.045)"/></g><rect width="78.506" height="6.947" transform="translate(187.217 130.062)" fill="#535461"/><rect width="55.76" height="6.947" transform="translate(131.814 104.077) rotate(27.64)" fill="#535461"/><circle cx="10.421" cy="10.421" r="10.421" transform="translate(170.89 123.115)" fill="#535461"/><g transform="translate(82.998 35.23)" opacity="0.1"><path d="M327.642,275.387a98.313,98.313,0,0,1,176.867-59.109A98.316,98.316,0,1,0,339.755,322.685a97.857,97.857,0,0,1-12.113-47.3Z" transform="translate(-320 -165.27)"/></g><path d="M712.72,200.391c-1.167-1.122-10.991,6.253-10.991,6.253s-3.5.639-2.664,3.039-3.665,15.844-3.665,15.844l-1.831-2.56a10.989,10.989,0,0,0-1.456-6.461c-.066-.108-.132-.212-.2-.309l.319-.111c-.122-1.64-2.744-4.137-4.137-5.36V210.2c.087-1.959.872-4.026,0-5.8-.987-2.025-3.873-3.043-4.116-5.266-.146-1.327.75-2.525,1.146-3.8.945-3.057-1.018-6.176-2.894-8.809a12.328,12.328,0,0,0-2.3-2.647,11.145,11.145,0,0,0-2.758-1.473,70.532,70.532,0,0,0-8.392-2.432,13.367,13.367,0,0,0-7.989-.16,3.928,3.928,0,0,0-1.737,1c-.657.736-.743,1.785-1.174,2.664-.695,1.414-2.192,2.258-3.515,3.165s-2.65,2.15-2.657,3.713c0,2.22,2.536,3.616,3.383,5.683.792,1.924,0,4.068-.441,6.1a4.1,4.1,0,0,0-.052,2.011,4.322,4.322,0,0,0,.778,1.355c.525.695,1.087,1.341,1.647,2l-.257.1c-4.662-.479-7.66,5.44-7.66,5.44.215.045.42.1.622.156l-.2.257a25.272,25.272,0,0,0-3.422,5.985l-3.821,5.12s-.834-12.8,1.167-15.684-1.831-4.641-1.831-4.641-8.337-9.282-9.494-8.483,2.831,10.883,6.329,12.485a15.377,15.377,0,0,1-.347,5.28c-.42,1.317-2.664,15.2-2.664,15.2s-2,11.682,7.163,5.905c5.951-3.745,9.8-10.192,11.755-14.242q.205-.427.385-.816a9.741,9.741,0,0,1,.184,1.3l.347,13.384a20.314,20.314,0,0,1-2.105,9.56l-4.082,8.278.455.139-.274.4c-2.689,3.957-7.26,12.853,2.15,17.386l12.505,1.6-.667,3.2s-5.162,9.761-6.663,16.483a49.393,49.393,0,0,1-4.332,11.842l.386.2c-.08.09-.163.184-.243.281a6.035,6.035,0,0,0-1.445,3.029l-1.7,2.4s-.667,9.921.667,12.325c.729,1.313,3.151,2.147,5.21,2.633a3.431,3.431,0,0,0,3.9-5.033l-.021-.035h-.031c-.347-1.615-1.41-6.628-1.063-8.531.1-.542.188-1.08.233-1.629a5.757,5.757,0,0,1,.646-2.06c.056-.108.115-.212.174-.316l.181.076c.559.24,1.112.465,1.636.663-.813.74-1.389,2.272-.695,5.423,0,0,.066,7.882.667,9.122s7.326,2.88,8.493,1.6-.75-5.683-.75-5.683l-.059.042c-.385-2.553-.862-7.125.309-8.924.472-.726.931-1.476,1.341-2.178l.254-.434h0c2.175,1.084,4.474,1.9,5.732,1.334,0,0,5.5-12.8,5.162-14.4s8.493-19.686,8.493-19.686,7.493-8.337-1.664-14.082c-2.907-1.831-5.026-3.06-6.565-3.891l-1.289-6.739a24.632,24.632,0,0,1,.347-10.65l1.389-5.3h0l.115-.452s3.5-7.2,3.331-10.564a2.433,2.433,0,0,1,.087-.775q.057.24.125.5a64.561,64.561,0,0,0,3.62,10.2c2.657,6,6.6,5.52,8.761,4.669a2.991,2.991,0,0,0,1.845-2.161c.778-3.731,2.914-14.183,3.05-17.07a48.536,48.536,0,0,1,.834-6.722C709.226,207.112,713.887,201.513,712.72,200.391Z" transform="translate(-440.578 -139.171)" fill="url(#b)"/><path d="M727.2,532.027s-.733,1.469-1.737,3.234c-.393.695-.83,1.442-1.278,2.161-1.588,2.539,0,10.63,0,10.63l-3.474.476-3.474-1.737-.636-5.871v-4.293l3.96-4.429,1.737-1.917Z" transform="translate(-495.834 -368.256)" fill="#f8bdc5"/><g transform="translate(224.719 162.024)" opacity="0.1"><path d="M734.625,532.027s-.733,1.469-1.737,3.234a43.032,43.032,0,0,1-4.44-2.73l-.306-.215-.163-.118,1.737-1.917Z" transform="translate(-727.98 -530.28)"/></g><path d="M742.928,407.541s-8.41,17.928-8.09,19.515-4.919,14.28-4.919,14.28c-1.195.563-3.39-.247-5.461-1.32a42.81,42.81,0,0,1-4.516-2.779l-.306-.215-.184-.132,13.8-38.239-12.214-8.959-.9-.663L714.68,385l16.674,3.015s.58-.073,3.647,1.643c1.473.823,3.519,2.056,6.347,3.911C750.063,399.291,742.928,407.541,742.928,407.541Z" transform="translate(-494.581 -273.442)" fill="#5e52ad"/><g transform="translate(220.099 111.558)" opacity="0.03"><path d="M742.928,407.541s-8.41,17.928-8.09,19.515-4.919,14.28-4.919,14.28c-1.195.563-3.39-.247-5.461-1.32a42.81,42.81,0,0,1-4.516-2.779l-.306-.215-.184-.132,13.8-38.239-12.214-8.959-.9-.663L714.68,385l16.674,3.015s.58-.073,3.647,1.643c1.473.823,3.519,2.056,6.347,3.911C750.063,399.291,742.928,407.541,742.928,407.541Z" transform="translate(-714.68 -385)"/></g><path d="M716.819,544.409s-4.127-.636-2.7,6.03c0,0,.063,7.816.636,9.032s6.982,2.855,8.09,1.588-.716-5.631-.716-5.631-4.679,3.411-5.951-.24S716.819,544.409,716.819,544.409Z" transform="translate(-494.021 -377.467)" fill="#5d3e53"/><path d="M696.338,534.838a5,5,0,0,0-1.08,1.5,5.874,5.874,0,0,0-.615,2.043c-.042.542-.129,1.08-.219,1.615-.4,2.261,1.122,8.962,1.122,8.962l-6.03.952-2.22-2.38-.476-5.235a18.968,18.968,0,0,0,.952-5.558,5.824,5.824,0,0,1,1.39-3.474,9.546,9.546,0,0,1,1.608-1.594S697.609,533.726,696.338,534.838Z" transform="translate(-476.399 -369.163)" fill="#f8bdc5"/><g transform="translate(212.776 162.5)" opacity="0.1"><path d="M700.763,534.825a5.005,5.005,0,0,0-1.08,1.5c-2.47-1.115-5.065-2.522-6.01-3.043l-.073-.038a9.547,9.547,0,0,1,1.608-1.594S702.034,533.713,700.763,534.825Z" transform="translate(-693.6 -531.65)"/></g><path d="M708.416,402.782s-3.963,7.458-6.506,13.645c-1.667,4.064-5.113,13.742-7.295,19.9l-.32.91c-.959,2.727-1.6,4.571-1.6,4.571a4.131,4.131,0,0,1-1.247-.184c-.375-.1-.8-.236-1.244-.4l-.5-.191c-.5-.195-1.042-.42-1.56-.657-2.522-1.126-5.211-2.591-6.187-3.126l-.368-.205a50.189,50.189,0,0,0,4.137-11.752c1.428-6.663,6.347-16.326,6.347-16.326l.636-3.175-11.9-1.587c-8.966-4.481-4.61-13.315-2.049-17.237a23.172,23.172,0,0,1,1.414-1.97l9.521,2.084s1.5.479,4.835,1.956l1.532.695c1.869.858,4.168,1.963,6.947,3.38C712.379,397.853,708.416,402.782,708.416,402.782Z" transform="translate(-468.957 -273.442)" fill="#5e52ad"/><path d="M693.99,556.96a3.369,3.369,0,0,1-3.717,4.988c-1.949-.483-4.259-1.31-4.953-2.612-1.268-2.379-.636-12.217-.636-12.217l1.667-2.459s-.872,10.869,1.191,11.811,6.426.441,6.426.441Z" transform="translate(-474.902 -377.641)" fill="#5d3e53"/><path d="M700.347,181.843a3.71,3.71,0,0,0-1.667.99c-.625.729-.695,1.772-1.119,2.643-.66,1.389-2.084,2.241-3.349,3.126s-2.525,2.133-2.532,3.682c0,2.2,2.432,3.585,3.224,5.631.754,1.911,0,4.033-.42,6.044a4.22,4.22,0,0,0-.049,1.994,4.333,4.333,0,0,0,.744,1.344c1.532,2.084,3.435,3.932,4.46,6.3a19.519,19.519,0,0,1,1.2,5.749,28.9,28.9,0,0,1,.056,8.458.854.854,0,0,0,0,.511.791.791,0,0,0,.406.347,8.337,8.337,0,0,0,11.286-4.168c.695-1.574.962-3.474,2.338-4.495a1.171,1.171,0,0,1,.559-.254,1.636,1.636,0,0,1,.9.3,8.9,8.9,0,0,0,5.94.6,5.521,5.521,0,0,0,3.227-1.6c1.567-1.862.695-4.644.8-7.072.083-1.942.83-3.991,0-5.749-.938-2.008-3.693-3.015-3.922-5.211-.139-1.313.716-2.5,1.094-3.769.9-3.033-.969-6.124-2.755-8.733a12.087,12.087,0,0,0-2.185-2.623,10.488,10.488,0,0,0-2.626-1.459,64.182,64.182,0,0,0-7.989-2.407A12.093,12.093,0,0,0,700.347,181.843Z" transform="translate(-479.571 -140.503)" fill="#85555c"/><path d="M735.09,261.093h-9.205V246.177a27.8,27.8,0,0,0,.479-4.342v-1.494a7.68,7.68,0,0,0-1.421-4.637c-2.539-2.855,8.25-2.38,8.25-2.38a26.852,26.852,0,0,0,1.285,3.842,23.365,23.365,0,0,0,3.092,5.443,12.6,12.6,0,0,0,4.193,3.568C748.1,249.352,735.09,261.093,735.09,261.093Z" transform="translate(-501.026 -174.435)" fill="#f8bdc5"/><g transform="translate(223.519 58.86)" opacity="0.1"><path d="M734.448,237.166a8.424,8.424,0,0,1-8.115,3.175,7.681,7.681,0,0,0-1.421-4.637c-2.539-2.855,8.25-2.38,8.25-2.38a26.853,26.853,0,0,0,1.285,3.842Z" transform="translate(-724.526 -233.294)"/></g><circle cx="8.41" cy="8.41" r="8.41" transform="translate(218.352 48.739)" fill="#f8bdc5"/><path d="M800.648,251.232a49.982,49.982,0,0,0-.792,6.663c-.129,2.859-2.164,13.224-2.907,16.924a2.935,2.935,0,0,1-1.758,2.143c-2.063.844-5.815,1.316-8.337-4.627a65.784,65.784,0,0,1-3.449-10.108,27.312,27.312,0,0,1-.695-3.536l5.558-3.015a6.843,6.843,0,0,1,1.313,1.685,11.268,11.268,0,0,1,1.389,6.406l1.737,2.539s4.283-13.329,3.474-15.708,2.539-3.015,2.539-3.015,9.362-7.295,10.473-6.187S805.883,248.057,800.648,251.232Z" transform="translate(-538.979 -179.647)" fill="#f8bdc5"/><path d="M660.262,249.062a37.508,37.508,0,0,1-1.494,3.647c-1.869,4.019-5.53,10.421-11.2,14.124-8.726,5.711-6.822-5.871-6.822-5.871s2.136-13.77,2.539-15.073a16.468,16.468,0,0,0,.316-5.235c-3.331-1.588-7.138-11.581-6.03-12.377s9.032,8.41,9.032,8.41,3.651,1.737,1.737,4.6-1.111,15.548-1.111,15.548l3.672-5.068a25.324,25.324,0,0,1,3.262-5.933c.695-.948,1.181-1.522,1.181-1.522Z" transform="translate(-444.13 -171.129)" fill="#f8bdc5"/><g transform="translate(243.724 76.025)" opacity="0.1"><path d="M789.572,284.4c-1.167.431-5.686,2.254-6.187,4.863a27.3,27.3,0,0,1-.695-3.536l5.558-3.015A6.849,6.849,0,0,1,789.572,284.4Z" transform="translate(-782.69 -282.71)"/></g><g transform="translate(210.032 73.177)" opacity="0.1"><path d="M691.8,279.266a37.535,37.535,0,0,1-1.494,3.647c-.215-1.57-1.1-5.586-4.606-6.881.695-.948,1.181-1.522,1.181-1.522Z" transform="translate(-685.7 -274.51)"/></g><g transform="translate(224.858 67.4)" opacity="0.1"><path d="M737.585,277.138H728.38V262.222a27.794,27.794,0,0,0,.479-4.342,5.724,5.724,0,0,1,1.424,4.658l4.919,11.116,2.383-9.827-.792-1.268,3.265-3.884a12.6,12.6,0,0,0,4.193,3.567C750.594,265.4,737.585,277.138,737.585,277.138Z" transform="translate(-728.38 -257.88)"/></g><g transform="translate(209.796 111.558)" opacity="0.1"><path d="M715.79,390.558s-7.211-.573-13.467-.844l-.629-.028c-.889-.035-1.737-.063-2.567-.083a57.5,57.5,0,0,1-14.107-2.64A23.182,23.182,0,0,1,686.437,385l9.521,2.084s1.5.479,4.835,1.956L695.323,385,712,388.015s.58-.073,3.647,1.643Z" transform="translate(-685.02 -385)"/></g><path d="M708.968,264.418l-.792-1.268,3.522-4.214s7.264,3.561,9.167,2.779c0,0,4.6,3.821,4.759,6.03,0,0-6.663,2.22-6.506,5.558s-3.161,10.47-3.161,10.47l-1.389,5.7a25.39,25.39,0,0,0-.347,10.56l1.268,7.062s-10-.792-16.674-.952a57.827,57.827,0,0,1-14.28-2.7l3.894-8.194a20.843,20.843,0,0,0,2.008-9.476l-.347-13.266s-.316-6.663-5.558-7.774c0,0,2.855-5.871,7.295-5.395,0,0,6.468-2.7,8.389-.875a5.716,5.716,0,0,1,1.448,4.683l4.919,11.116Z" transform="translate(-474.904 -190.453)" fill="#72577d"/><g transform="translate(218.339 45.036)" opacity="0.1"><path d="M711.967,203.88c1.275,0,2.275-1.351,3.55-1.282a3.615,3.615,0,0,1,1.772.834,21.624,21.624,0,0,0,6.777,3.126,5.912,5.912,0,0,0,2.883.208,2.459,2.459,0,0,0,1.938-1.942,3.314,3.314,0,0,0-.167-1.261,15.587,15.587,0,0,0-6.788-8.959,5.344,5.344,0,0,0-4.394-.921c-1.32.455-2.171,1.692-3.126,2.71a11.873,11.873,0,0,1-2.432,1.973c-.695.42-1.737.695-2.136,1.466C709.091,201.271,710.275,203.866,711.967,203.88Z" transform="translate(-709.613 -193.5)"/></g><path d="M711.967,202.97c1.275,0,2.275-1.351,3.55-1.282a3.616,3.616,0,0,1,1.772.834,21.624,21.624,0,0,0,6.777,3.126,5.912,5.912,0,0,0,2.883.208,2.459,2.459,0,0,0,1.938-1.942,3.314,3.314,0,0,0-.167-1.261,15.586,15.586,0,0,0-6.788-8.959,5.343,5.343,0,0,0-4.394-.921c-1.32.455-2.171,1.692-3.126,2.709a11.875,11.875,0,0,1-2.432,1.973c-.695.42-1.737.695-2.136,1.466C709.091,200.375,710.275,202.952,711.967,202.97Z" transform="translate(-491.274 -147.87)" fill="#85555c"/><path d="M705.32,326.79s7.774,2.855,12.853.636l2.539.16s4.221,2.96,8.684,1.636" transform="translate(-488.472 -235.453)" opacity="0.05"/><path d="M809.764,313.09s-1.268,3.015-.636,3.967" transform="translate(-556.105 -226.512)" opacity="0.05"/><path d="M665.58,310.35s.636,3.015,0,3.967" transform="translate(-462.537 -224.724)" opacity="0.05"/><path d="M1006.091,508.84a34.7,34.7,0,0,0-6.329,36.1c8.2,21.565-14.061,57.424-14.061,57.424s.24-.035.695-.111c29.85-5.27,44.679-39.406,28.081-64.767C1008.29,528.057,1003.225,517,1006.091,508.84Z" transform="translate(-671.457 -354.264)" fill="none" opacity="0.542"/></g></g></svg>